<svg width="39" height="40" viewBox="0 0 39 40" fill="none" xmlns="http://www.w3.org/2000/svg">
<path d="M1.32348 27.1094V7.09467C3.46973 5.55261 6.45909 6.00741 9.02704 6.00741C15.3743 6.00741 21.6782 5.31555 27.965 5.31555C28.5926 5.31555 33.9093 4.07297 34.0636 4.23931C34.5436 4.75659 34.0636 8.64492 34.0636 9.46675C34.0636 16.8945 35.4539 25.0144 36.9168 32.2215C37.5501 35.3415 38.6196 36.7273 35.9895 37.9871C34.2846 38.8037 32.3931 38.5252 30.5328 38.5252C25.6074 38.5252 20.4748 38.9424 15.5893 38.3714C13.424 38.1184 3.10172 38.4008 2.25076 35.9115C1.26268 33.021 1.32348 30.1191 1.32348 27.1094Z" stroke="#C2D1D9" stroke-width="1.91379" stroke-linecap="round"/>
<path d="M10.8843 1.67218C10.8843 4.7064 10.9148 7.1084 12.1601 9.96528" stroke="#C2D1D9" stroke-width="1.91379" stroke-linecap="round"/>
<path d="M24.2808 1.67218V9.32735" stroke="#C2D1D9" stroke-width="1.91379" stroke-linecap="round"/>
<path d="M5.94616 14.4309C5.94616 15.8285 5.12438 18.8581 7.14433 18.8581C8.73247 18.8581 10.352 18.9442 11.937 18.8581C12.411 18.8323 11.9906 16.3797 11.937 15.5377C11.8679 14.453 7.67666 15.5377 6.54524 15.5377" stroke="#BDFF02" stroke-width="1.91379" stroke-linecap="round"/>
<path d="M5.94616 22.086C5.94616 23.4836 5.12438 26.5132 7.14433 26.5132C8.73247 26.5132 10.352 26.5993 11.937 26.5132C12.411 26.4874 11.9906 24.0348 11.937 23.1928C11.8679 22.1081 7.67666 23.1928 6.54524 23.1928" stroke="#C2D1D9" stroke-width="1.91379" stroke-linecap="round"/>
<path d="M5.94616 29.103C5.94616 30.5006 5.12438 33.5302 7.14433 33.5302C8.73247 33.5302 10.352 33.6164 11.937 33.5302C12.411 33.5045 11.9906 31.0519 11.937 30.2098C11.8679 29.1251 7.67666 30.2098 6.54524 30.2098" stroke="#C2D1D9" stroke-width="1.91379" stroke-linecap="round"/>
<path d="M14.7119 15.6117C14.7119 17.2525 14.7669 18.8701 16.9519 18.8701C18.3705 18.8701 20.559 19.0979 21.6096 18.2064C22.1067 17.7845 20.9423 15.0686 20.1519 15.0686C18.7184 15.0686 16.558 15.643 15.3519 16.1547" stroke="#C2D1D9" stroke-width="1.91379" stroke-linecap="round"/>
<path d="M14.7119 23.2671C14.7119 24.9079 14.7669 26.5255 16.9519 26.5255C18.3705 26.5255 20.559 26.7533 21.6096 25.8618C22.1067 25.4399 20.9423 22.724 20.1519 22.724C18.7184 22.724 16.558 23.2984 15.3519 23.8101" stroke="#C2D1D9" stroke-width="1.91379" stroke-linecap="round"/>
<path d="M14.7119 30.2844C14.7119 31.9253 14.7669 33.5429 16.9519 33.5429C18.3705 33.5429 20.559 33.7707 21.6096 32.8791C22.1067 32.4573 20.9423 29.7414 20.1519 29.7414C18.7184 29.7414 16.558 30.3158 15.3519 30.8275" stroke="#C2D1D9" stroke-width="1.91379" stroke-linecap="round"/>
<path d="M24.2808 15.424C24.2808 15.7845 24.5991 20.4035 25.8912 19.3894C26.7259 18.7343 30.5955 19.4264 30.6583 18.3493C30.7022 17.5953 29.9235 13.6224 29.4987 13.7989C27.969 14.4345 26.5335 15.424 24.8605 15.424" stroke="#C2D1D9" stroke-width="1.91379" stroke-linecap="round"/>
<path d="M24.2808 23.0788C24.2808 23.4393 24.5991 28.0583 25.8912 27.0441C26.7259 26.3891 30.5955 27.0812 30.6583 26.004C30.7022 25.2501 29.9235 21.2771 29.4987 21.4536C27.969 22.0892 26.5335 23.0788 24.8605 23.0788" stroke="#BDFF02" stroke-width="1.91379" stroke-linecap="round"/>
<path d="M24.2808 30.0961C24.2808 30.4566 24.5991 35.0756 25.8912 34.0615C26.7259 33.4065 30.5955 34.0986 30.6583 33.0214C30.7022 32.2675 29.9235 28.2945 29.4987 28.471C27.969 29.1066 26.5335 30.0961 24.8605 30.0961" stroke="#C2D1D9" stroke-width="1.91379" stroke-linecap="round"/>
</svg>
