<svg width="21" height="26" viewBox="0 0 21 26" fill="none" xmlns="http://www.w3.org/2000/svg">
<path d="M1 4.31573H19.5682" stroke="#C2D1D9" stroke-width="2" stroke-linecap="round"/>
<path d="M1.6628 6.30521C1.6628 9.51126 0.783323 13.884 2.84173 16.3998C4.44762 18.3626 4.2963 21.6114 5.31012 23.8418C6.45268 26.3555 14.5166 24.0984 16.7679 23.3997C17.8377 23.0677 19.1155 23.1243 18.9415 22.5155C18.3696 20.5137 18.9047 17.6551 18.9047 15.5893C18.9047 12.6787 19.5678 9.98378 19.5678 6.96836" stroke="#C2D1D9" stroke-width="2" stroke-linecap="round"/>
<path d="M6.30518 7.96307C6.30518 10.8778 6.1476 14.4452 7.4657 17.0814" stroke="#C2D1D9" stroke-width="2" stroke-linecap="round"/>
<path d="M10.6155 8.79199C10.6155 10.1183 10.6155 11.4446 10.6155 12.7709C10.6155 13.4542 10.3679 14.7479 10.6524 15.4235C10.8608 15.9185 10.8428 17.5266 11.2787 17.7445" stroke="#C2D1D9" stroke-width="2" stroke-linecap="round"/>
<path d="M14.7603 7.4657V16.4182" stroke="#C2D1D9" stroke-width="2" stroke-linecap="round"/>
<path d="M7.63135 3.6526C7.71727 2.44967 7.76096 2.19786 8.54318 1.58947C8.90124 1.31097 10.1134 1 10.5326 1C12.1012 1 12.2734 2.46487 12.2734 3.81838" stroke="#C2D1D9" stroke-width="2" stroke-linecap="round"/>
</svg>
