<svg width="52" height="39" viewBox="0 0 52 39" fill="none" xmlns="http://www.w3.org/2000/svg">
<path d="M46 0H6C2.68629 0 0 2.68629 0 6V24.5C0 28.0899 2.91015 31 6.5 31V39L19 31H46C49.3137 31 52 28.3137 52 25V6C52 2.68629 49.3137 0 46 0Z" fill="#3502FF"/>
<path d="M9.25 12.4998C9.30184 11.5925 9.31074 9.59863 10.3472 9.11088C10.8879 8.85642 13.0598 11.5596 13.4306 11.9303C13.7829 12.2827 15.1076 14.1421 15.8056 13.4442C17.1568 12.093 17.7983 9.74413 19.375 8.65255C20.0418 8.1909 20.2691 9.28815 20.75 9.55532C22.0535 10.2795 23.4068 8.11693 24.5 9.55532C25.8224 11.2953 27.4298 8.25124 28.5 10.0553C28.8418 10.6314 29.4151 12.5062 30.3611 12.2359C30.5794 12.1735 30.5909 11.8825 30.8611 11.8053C31.6079 11.592 32.4776 11.4998 33.25 11.4998C34.258 11.4998 35.2586 12.0392 36.1667 11.4581C37.159 10.823 38.1445 10.0139 39.0556 9.30532C39.1398 9.23982 39.8892 10.6775 40.125 10.8609C40.8031 11.3883 41.6662 9.08185 42.25 8.80532C42.8502 8.52102 43.3303 10.7152 43.5 11.097C43.7893 11.7479 44 10.65 44 10.9998" stroke="#BDFF02" stroke-width="2" stroke-linecap="round"/>
<path d="M9 21.2589C10.171 21.1395 11.2847 20.9899 12.476 20.9899C13.7522 20.9899 15.9435 20.3811 17.0441 21.3187C17.5954 21.7883 17.6575 22.3442 17.8832 22.9773C17.9494 23.1631 18.3338 22.1455 18.336 22.1405C18.5925 21.565 19.5484 21.1401 19.9608 20.7509C21.1824 19.5978 22.3359 17.6138 23.8896 19.2566C24.1944 19.5787 24.5325 20.7869 25.0616 20.721C26.0865 20.5932 25.7215 16.918 27.4589 18.4496C27.7669 18.7211 27.9761 19.3761 28.4178 19.3761C29.1067 19.3761 30.1218 18.277 30.6819 17.9117C33.097 16.3362 34.2485 16.8015 35.7428 19.3163C36.0435 19.8224 37.1951 19.1566 37.8737 19.7796C38.4879 20.3434 38.897 20.0638 39.6317 19.7945C41.2322 19.2078 42.3574 18.772 44 19.1071" stroke="#BDFF02" stroke-width="2" stroke-linecap="round"/>
</svg>
